<svg data-name="Capa 1" xmlns="http://www.w3.org/2000/svg" viewBox="0 0 1434.67 1191.11"><path d="M1309.58 0h-49c-1.66 0-3 1.34-3 3s1.34 3 3 3h49c1.66 0 3-1.34 3-3s-1.34-3-3-3Zm-98 0h-49c-1.66 0-3 1.34-3 3s1.34 3 3 3h49c1.66 0 3-1.34 3-3s-1.34-3-3-3Zm-98 0h-49c-1.66 0-3 1.34-3 3s1.34 3 3 3h49c1.66 0 3-1.34 3-3s-1.34-3-3-3Zm-98 0h-49c-1.66 0-3 1.34-3 3s1.34 3 3 3h49c1.66 0 3-1.34 3-3s-1.34-3-3-3Zm-98 0h-49c-1.66 0-3 1.34-3 3s1.34 3 3 3h49c1.66 0 3-1.34 3-3s-1.34-3-3-3Zm-98 0h-49c-1.66 0-3 1.34-3 3s1.34 3 3 3h49c1.66 0 3-1.34 3-3s-1.34-3-3-3Zm-98 0h-49c-1.66 0-3 1.34-3 3s1.34 3 3 3h49c1.66 0 3-1.34 3-3s-1.34-3-3-3Zm-98 0h-49c-1.66 0-3 1.34-3 3s1.34 3 3 3h49c1.66 0 3-1.34 3-3s-1.34-3-3-3Zm-98 0h-49c-1.66 0-3 1.34-3 3s1.34 3 3 3h49c1.66 0 3-1.34 3-3s-1.34-3-3-3Zm-98 0h-49c-1.66 0-3 1.34-3 3s1.34 3 3 3h49c1.66 0 3-1.34 3-3s-1.34-3-3-3Zm-98 0h-49c-1.66 0-3 1.34-3 3s1.34 3 3 3h49c1.66 0 3-1.34 3-3s-1.34-3-3-3Zm-98 0h-49c-1.66 0-3 1.34-3 3s1.34 3 3 3h49c1.66 0 3-1.34 3-3s-1.34-3-3-3Zm-98 0h-49c-1.66 0-3 1.34-3 3s1.34 3 3 3h49c1.66 0 3-1.34 3-3s-1.34-3-3-3Zm-98 0H23.7c-.05 0-.1.01-.15.02H22.87c-.07.01-.15.02-.23.04H22.05l-.31.06H21.43c-.03 0-.05.01-.07.02-.13.03-.26.06-.38.09h-.29l-.58.15s-.03 0-.04.01-.02 0-.04.01c-.01 0-.02 0-.04.01s-.02 0-.04.01c-.03 0-.05.01-.08.02C8.88 4.15.93 13.61.08 25.04a3 3 0 0 0 2.77 3.21h.23a3 3 0 0 0 2.99-2.78C6.89 14.54 16.12 5.98 27.1 5.98h8.49c1.66 0 3-1.34 3-3s-1.34-3-3-3ZM3 71.04c-1.66 0-3 1.34-3 3v49c0 1.66 1.34 3 3 3s3-1.34 3-3v-49c0-1.66-1.34-3-3-3Zm0 98c-1.66 0-3 1.34-3 3v49c0 1.66 1.34 3 3 3s3-1.34 3-3v-49c0-1.66-1.34-3-3-3Zm0 98c-1.66 0-3 1.34-3 3v49c0 1.66 1.34 3 3 3s3-1.34 3-3v-49c0-1.66-1.34-3-3-3Zm0 98c-1.66 0-3 1.34-3 3v49c0 1.66 1.34 3 3 3s3-1.34 3-3v-49c0-1.66-1.34-3-3-3Zm0 98c-1.66 0-3 1.34-3 3v49c0 1.66 1.34 3 3 3s3-1.34 3-3v-49c0-1.66-1.34-3-3-3Zm802.55 722.07h-49c-1.66 0-3 1.34-3 3s1.34 3 3 3h49c1.66 0 3-1.34 3-3s-1.34-3-3-3Zm98 0h-49c-1.66 0-3 1.34-3 3s1.34 3 3 3h49c1.66 0 3-1.34 3-3s-1.34-3-3-3Zm98 0h-49c-1.66 0-3 1.34-3 3s1.34 3 3 3h49c1.66 0 3-1.34 3-3s-1.34-3-3-3Zm98 0h-49c-1.66 0-3 1.34-3 3s1.34 3 3 3h49c1.66 0 3-1.34 3-3s-1.34-3-3-3Zm98 0h-49c-1.66 0-3 1.34-3 3s1.34 3 3 3h49c1.66 0 3-1.34 3-3s-1.34-3-3-3Zm98 0h-49c-1.66 0-3 1.34-3 3s1.34 3 3 3h49c1.66 0 3-1.34 3-3s-1.34-3-3-3Zm98 0h-49c-1.66 0-3 1.34-3 3s1.34 3 3 3h49c1.66 0 3-1.34 3-3s-1.34-3-3-3Zm38.12-65.5c-1.66 0-3 1.34-3 3v41.42c0 1.98-.27 3.95-.81 5.83-.46 1.59.46 3.25 2.06 3.71.28.08.55.12.83.12 1.3 0 2.49-.85 2.88-2.16.42-1.45.71-2.94.89-4.48 0-.05.01-.11.02-.16 0-.04 0-.08.01-.11v-44.12c0-1.66-1.34-3-3-3Zm0-98c-1.66 0-3 1.34-3 3v49c0 1.66 1.34 3 3 3s3-1.34 3-3v-49c0-1.66-1.34-3-3-3Zm0-98c-1.66 0-3 1.34-3 3v49c0 1.66 1.34 3 3 3s3-1.34 3-3v-49c0-1.66-1.34-3-3-3Zm0-98c-1.66 0-3 1.34-3 3v49c0 1.66 1.34 3 3 3s3-1.34 3-3v-49c0-1.66-1.34-3-3-3Zm0-98c-1.66 0-3 1.34-3 3v49c0 1.66 1.34 3 3 3s3-1.34 3-3v-49c0-1.66-1.34-3-3-3Zm0-98c-1.66 0-3 1.34-3 3v49c0 1.66 1.34 3 3 3s3-1.34 3-3v-49c0-1.66-1.34-3-3-3Zm0-98c-1.66 0-3 1.34-3 3v49c0 1.66 1.34 3 3 3s3-1.34 3-3v-49c0-1.66-1.34-3-3-3Zm0-98c-1.66 0-3 1.34-3 3v49c0 1.66 1.34 3 3 3s3-1.34 3-3v-49c0-1.66-1.34-3-3-3Zm0-98c-1.66 0-3 1.34-3 3v49c0 1.66 1.34 3 3 3s3-1.34 3-3v-49c0-1.66-1.34-3-3-3Zm0-98c-1.66 0-3 1.34-3 3v49c0 1.66 1.34 3 3 3s3-1.34 3-3v-49c0-1.66-1.34-3-3-3Zm0-98c-1.66 0-3 1.34-3 3v49c0 1.66 1.34 3 3 3s3-1.34 3-3v-49c0-1.66-1.34-3-3-3Zm0-98c-1.66 0-3 1.34-3 3v49c0 1.66 1.34 3 3 3s3-1.34 3-3v-49c0-1.66-1.34-3-3-3ZM1407.58 0h-49c-1.66 0-3 1.34-3 3s1.34 3 3 3h49c2.92 0 5.74.58 8.38 1.73.39.17.79.25 1.19.25a3.005 3.005 0 0 0 1.19-5.76 27.74 27.74 0 0 0-4.06-1.39s-.03 0-.04-.01H1413.41c-.1-.02-.21-.04-.31-.07-.03 0-.05-.01-.08-.02-.03 0-.05-.01-.08-.02-.03 0-.05-.01-.08-.02h-.16c-.03 0-.05 0-.08-.01H1412.14c-.45-.07-.89-.14-1.35-.19h-.04c-.04 0-.08 0-.13-.01H1409.98c-.17-.01-.34-.03-.51-.04H1407.68Z" style="fill:#fff"/></svg>