<?xml version="1.0" encoding="utf-8" ?>
<svg xmlns="http://www.w3.org/2000/svg" xmlns:xlink="http://www.w3.org/1999/xlink" width="512" height="512" viewBox="0 0 512 512">
	<path fill="#9000FF" d="M439.265 311.264L439.335 196.266L420.099 195.327C366.995 190.476 314.821 178.278 266.928 154.36L248.846 144.62C247.813 144.056 246.343 143.771 245.541 142.94L245.278 318.86C245.277 327.134 245.652 335.578 244.814 343.814C239.273 398.327 190.674 441.275 136.25 441.236C121.39 441.225 107.057 438.345 93.3037 432.659C39.6697 410.482 10.2453 344.93 33.0781 290.758C51.1431 247.898 90.859 220.526 137.295 220.501C154.783 220.492 171.473 224.546 186.969 232.887C188.211 233.555 193.963 236.379 194.737 237.225L195.079 102.647C195.082 98.1726 194.736 93.3638 195.244 88.9306C196.533 77.6584 204.715 69.3819 215.924 67.5821C218.561 67.3142 221.338 67.2579 223.936 67.8655L224.375 67.9742C231.742 69.7519 236.791 75.9312 242.602 80.3604C294.625 120.018 358.941 138.548 423.311 144.92L443.133 146.39C445.422 146.526 447.709 146.853 450 146.908L462.241 146.959C474.109 146.98 485.627 151.188 488.789 164.202L488.857 164.5C489.442 166.909 489.229 169.437 489.217 171.9L489.053 341.404C486.946 385.62 455.648 424.187 413.776 437.13C352.051 456.21 285.608 410.917 280.604 346.13C280.049 338.944 280.467 331.429 280.468 324.215L280.668 225.338C282.321 226.45 284.654 226.898 286.543 227.685C299.619 233.13 315.482 239.813 329.419 242.816L329.632 328.657C329.604 333.438 329.332 338.379 329.999 343.125C333.725 369.636 357.368 390.486 384.027 390.552C411.183 390.618 435.144 369.929 438.809 342.95C439.402 338.578 439.245 334.131 439.251 329.729L439.265 311.264ZM133.139 270.826C105.068 273.055 80.2559 294.391 76.3348 322.689C71.2033 359.723 102.48 392.939 139.562 390.468C156.506 388.639 171.739 381.819 182.629 368.381C213.935 329.75 186.67 270.826 138.054 270.762C136.471 270.76 134.703 270.635 133.139 270.826Z"/>
</svg>
